<svg width="180" height="180" viewBox="0 0 180 180" fill="none" xmlns="http://www.w3.org/2000/svg">
  <defs>
    <radialGradient id="glow" cx="50%" cy="50%" r="60%">
      <stop offset="0%" stop-color="#4fd1ff" stop-opacity="0.8"/>
      <stop offset="100%" stop-color="#18181b" stop-opacity="0"/>
    </radialGradient>
  </defs>
  <rect width="180" height="180" rx="32" fill="#18181b"/>
  <!-- Globe grid -->
  <ellipse cx="90" cy="120" rx="48" ry="24" stroke="#4fd1ff" stroke-width="2" fill="url(#glow)" />
  <ellipse cx="90" cy="120" rx="32" ry="12" stroke="#39ff14" stroke-width="1" fill="none" />
  <ellipse cx="90" cy="120" rx="16" ry="6" stroke="#ff3cac" stroke-width="1" fill="none" />
  <!-- Spider body -->
  <circle cx="90" cy="80" r="18" fill="#18181b" stroke="#ff3cac" stroke-width="4" filter="url(#glow)"/>
  <!-- Spider head -->
  <circle cx="90" cy="65" r="8" fill="#18181b" stroke="#4fd1ff" stroke-width="3"/>
  <!-- Spider legs (left) -->
  <polyline points="90,80 65,70 55,50" stroke="#39ff14" stroke-width="3" fill="none" stroke-linecap="round"/>
  <polyline points="90,80 70,80 50,70" stroke="#4fd1ff" stroke-width="3" fill="none" stroke-linecap="round"/>
  <polyline points="90,80 75,90 60,100" stroke="#ff3cac" stroke-width="3" fill="none" stroke-linecap="round"/>
  <!-- Spider legs (right) -->
  <polyline points="90,80 115,70 125,50" stroke="#39ff14" stroke-width="3" fill="none" stroke-linecap="round"/>
  <polyline points="90,80 110,80 130,70" stroke="#4fd1ff" stroke-width="3" fill="none" stroke-linecap="round"/>
  <polyline points="90,80 105,90 120,100" stroke="#ff3cac" stroke-width="3" fill="none" stroke-linecap="round"/>
  <!-- Data stream/circuit lines -->
  <line x1="90" y1="65" x2="90" y2="80" stroke="#4fd1ff" stroke-width="2" stroke-dasharray="2,2"/>
  <line x1="90" y1="80" x2="90" y2="120" stroke="#39ff14" stroke-width="2" stroke-dasharray="2,2"/>
  <!-- Neon glow effect (subtle) -->
  <ellipse cx="90" cy="120" rx="50" ry="26" fill="url(#glow)" opacity="0.5"/>
</svg>